<svg width="20" height="20" viewBox="0 0 20 20" fill="none" xmlns="http://www.w3.org/2000/svg">
<g clip-path="url(#clip0)">
<path d="M10.0037 4.86523C7.1679 4.86523 4.87207 7.16357 4.87207 9.9969C4.87207 12.8327 7.1704 15.1286 10.0037 15.1286C12.8396 15.1286 15.1354 12.8302 15.1354 9.9969C15.1354 7.16107 12.8371 4.86523 10.0037 4.86523ZM10.0037 13.3277C8.1629 13.3277 6.6729 11.8369 6.6729 9.9969C6.6729 8.1569 8.16374 6.66607 10.0037 6.66607C11.8437 6.66607 13.3346 8.1569 13.3346 9.9969C13.3354 11.8369 11.8446 13.3277 10.0037 13.3277Z" fill="#AEBBD5"/>
<path d="M14.1235 0.0637988C12.2835 -0.0220346 7.72602 -0.0178679 5.88436 0.0637988C4.26602 0.139632 2.83852 0.530465 1.68769 1.6813C-0.235644 3.60463 0.0101894 6.1963 0.0101894 9.99713C0.0101894 13.8871 -0.206477 16.4188 1.68769 18.313C3.61852 20.243 6.24769 19.9905 10.0035 19.9905C13.8569 19.9905 15.1869 19.993 16.5494 19.4655C18.4019 18.7463 19.8002 17.0905 19.9369 14.1163C20.0235 12.2755 20.0185 7.7188 19.9369 5.87713C19.7719 2.3663 17.8877 0.237132 14.1235 0.0637988ZM17.036 17.0405C15.7752 18.3013 14.026 18.1888 9.97936 18.1888C5.81269 18.1888 4.14186 18.2505 2.92269 17.028C1.51852 15.6305 1.77269 13.3863 1.77269 9.9838C1.77269 5.37963 1.30019 2.0638 5.92102 1.82713C6.98269 1.78963 7.29519 1.77713 9.96769 1.77713L10.0052 1.80213C14.446 1.80213 17.9302 1.33713 18.1394 5.95713C18.1869 7.0113 18.1977 7.32797 18.1977 9.9963C18.1969 14.1146 18.2752 15.7955 17.036 17.0405Z" fill="#AEBBD5"/>
<path d="M15.3378 5.86219C16.0001 5.86219 16.537 5.32531 16.537 4.66303C16.537 4.00075 16.0001 3.46387 15.3378 3.46387C14.6756 3.46387 14.1387 4.00075 14.1387 4.66303C14.1387 5.32531 14.6756 5.86219 15.3378 5.86219Z" fill="#AEBBD5"/>
</g>
<defs>
<clipPath id="clip0">
<rect width="20" height="20" fill="white"/>
</clipPath>
</defs>
</svg>
