<svg width="16" height="17" viewBox="0 0 16 17" fill="none" xmlns="http://www.w3.org/2000/svg">
<path d="M14.5212 3.88215C14.5209 3.877 14.5203 3.87184 14.5195 3.86671C14.4995 3.83814 14.4749 3.81356 14.4543 3.78556C14.3049 3.58207 14.1468 3.38621 13.9799 3.19795C13.9342 3.14651 13.8884 3.09563 13.8415 3.04533C13.6697 2.86129 13.4894 2.6858 13.3008 2.51891C13.266 2.48803 13.2334 2.45604 13.1985 2.42573C12.7336 2.02748 12.2246 1.68379 11.6815 1.40145C11.6598 1.39003 11.6369 1.38032 11.6146 1.36887C11.3727 1.24595 11.1247 1.13546 10.8715 1.0379C10.8144 1.01734 10.7624 0.99788 10.7081 0.980732C10.4829 0.899581 10.2542 0.828512 10.0222 0.767523C9.95356 0.749237 9.88497 0.730381 9.81524 0.714372C9.58659 0.661221 9.35798 0.620629 9.12417 0.587472C9.0533 0.57719 8.98357 0.563458 8.9121 0.554885C8.30995 0.481705 7.70118 0.481705 7.09899 0.554885C7.02756 0.563458 6.95783 0.57719 6.88693 0.587472C6.65315 0.620629 6.42223 0.661221 6.19586 0.714372C6.12613 0.730381 6.05754 0.749237 5.98895 0.767523C5.75534 0.828478 5.52673 0.899548 5.30303 0.980732C5.24586 1.00016 5.19385 1.01962 5.13956 1.0379C4.8864 1.13546 4.63836 1.24592 4.39648 1.36887C4.37418 1.38029 4.35133 1.39 4.3296 1.40145C3.78465 1.68349 3.27394 2.02715 2.80743 2.42573C2.77257 2.45601 2.73998 2.48803 2.70512 2.51891C2.51458 2.68657 2.33433 2.86206 2.16439 3.04533C2.11754 3.09563 2.07179 3.14651 2.02607 3.19795C1.85878 3.38581 1.70063 3.58167 1.55166 3.78553C1.5311 3.81353 1.50651 3.83811 1.48649 3.86668C1.48387 3.87167 1.48156 3.87683 1.47962 3.88212C-0.491904 6.64509 -0.491904 10.355 1.47962 13.1179C1.48156 13.1232 1.48384 13.1283 1.48649 13.1333C1.50648 13.1619 1.53106 13.1865 1.55166 13.2145C1.70066 13.418 1.85878 13.6138 2.02607 13.8021C2.07179 13.8535 2.11754 13.9044 2.16439 13.9547C2.33664 14.1388 2.51686 14.3143 2.70512 14.4811C2.73998 14.512 2.77257 14.544 2.80743 14.5743C3.2723 14.9726 3.7813 15.3163 4.32444 15.5986C4.34618 15.61 4.36902 15.6197 4.39132 15.6312C4.6332 15.7541 4.88121 15.8646 5.1344 15.9621C5.19157 15.9827 5.24359 16.0022 5.29788 16.0193C5.52308 16.1005 5.75172 16.1715 5.98379 16.2325C6.05238 16.2508 6.12097 16.2697 6.1907 16.2857C6.41935 16.3388 6.64796 16.3794 6.88177 16.4126C6.95264 16.4229 7.02237 16.4366 7.09384 16.4452C7.69598 16.5183 8.30476 16.5183 8.90695 16.4452C8.97838 16.4366 9.04811 16.4229 9.11901 16.4126C9.35279 16.3794 9.58371 16.3388 9.81008 16.2857C9.87981 16.2697 9.9484 16.2508 10.017 16.2325C10.251 16.1716 10.4796 16.1005 10.7029 16.0193C10.7601 15.9999 10.8121 15.9804 10.8664 15.9621C11.1195 15.8646 11.3676 15.7541 11.6095 15.6312C11.6318 15.6198 11.6546 15.61 11.6763 15.5986C12.2195 15.3162 12.7285 14.9726 13.1933 14.5743C13.2282 14.544 13.2608 14.512 13.2957 14.4811C13.4862 14.3139 13.6665 14.1384 13.8364 13.9547C13.8832 13.9044 13.929 13.8535 13.9747 13.8021C14.142 13.6138 14.3002 13.418 14.4491 13.2145C14.4697 13.1865 14.4943 13.1619 14.5143 13.1333C14.5169 13.1283 14.5192 13.1232 14.5212 13.1179C16.4927 10.355 16.4927 6.64512 14.5212 3.88215ZM13.869 4.96363C14.4156 5.86392 14.7457 6.87886 14.8332 7.92849H11.4094C11.3675 7.2474 11.2603 6.57194 11.0893 5.91135C12.0565 5.73023 12.9926 5.41105 13.869 4.96363ZM9.45741 1.7987C9.48943 1.80614 9.52028 1.81642 9.5523 1.82385C9.75693 1.87188 9.95986 1.92674 10.1582 1.99533C10.1885 2.00561 10.2182 2.01764 10.248 2.02849C10.4446 2.09708 10.6383 2.1731 10.8281 2.25713C10.8613 2.27257 10.8939 2.28972 10.927 2.30516C11.1088 2.39167 11.2864 2.48521 11.4598 2.58582L11.5741 2.65498C11.7387 2.75559 11.8987 2.86323 12.0542 2.97794C12.0942 3.00708 12.1342 3.03511 12.1737 3.0671C12.3261 3.18141 12.472 3.30392 12.6115 3.43464C12.6481 3.46779 12.6858 3.50038 12.7218 3.53468C12.8681 3.67357 13.0076 3.82046 13.1425 3.97251C13.1597 3.99251 13.1779 4.01079 13.1951 4.02968C12.4211 4.39853 11.6012 4.66191 10.7573 4.81275C10.3663 3.73794 9.8498 2.71302 9.21855 1.75931C9.29793 1.77358 9.37911 1.78159 9.45741 1.7987ZM5.73749 7.92846C5.78257 7.31 5.88787 6.6974 6.05188 6.09937C6.69951 6.1763 7.35112 6.21445 8.00331 6.21368C8.65609 6.21348 9.30831 6.17436 9.95644 6.09649C10.1201 6.69549 10.2249 7.30906 10.2691 7.92846H5.73749ZM10.2691 9.07166C10.224 9.69012 10.1187 10.3027 9.9547 10.9007C9.30707 10.8238 8.65546 10.7857 8.00327 10.7864C7.35052 10.7857 6.69833 10.8238 6.05013 10.9007C5.88659 10.3027 5.7819 9.69009 5.73746 9.07166H10.2691ZM8.00327 2.01365C8.65375 2.93558 9.18874 3.9338 9.5963 4.98594C9.06717 5.04214 8.53542 5.07037 8.00327 5.07054C7.47172 5.0699 6.94055 5.0415 6.41195 4.98537C6.82001 3.93393 7.35437 2.93605 8.00327 2.01365ZM2.86467 3.97191C2.99901 3.81986 3.13903 3.67296 3.28536 3.53407C3.32136 3.49978 3.35911 3.46719 3.39568 3.43403C3.53668 3.30563 3.68264 3.18311 3.83352 3.0665C3.87297 3.03619 3.91296 3.00933 3.95298 2.97734C4.10845 2.86303 4.26851 2.75536 4.43312 2.65438L4.54743 2.58522C4.72081 2.48387 4.89839 2.3903 5.08015 2.30456C5.1133 2.28912 5.14589 2.27197 5.17905 2.25653C5.36881 2.17079 5.5626 2.09477 5.75923 2.02788C5.78893 2.01703 5.8164 2.00501 5.84895 1.99473C6.04729 1.92841 6.24908 1.87355 6.45485 1.82325C6.48687 1.81581 6.51771 1.80553 6.5503 1.79867C6.6286 1.78152 6.70979 1.77351 6.78923 1.75921C6.15771 2.71309 5.64107 3.73821 5.24992 4.81322C4.40596 4.66238 3.58601 4.399 2.81209 4.03015C2.82924 4.01019 2.84752 3.99191 2.86467 3.97191ZM2.1376 4.96363C3.01377 5.41102 3.9497 5.73019 4.91667 5.91135C4.7459 6.57197 4.63889 7.24743 4.59716 7.92849H1.17334C1.26089 6.87886 1.59098 5.86392 2.1376 4.96363ZM2.1376 12.0365C1.59095 11.1362 1.26085 10.1213 1.17334 9.07166H4.59716C4.63909 9.75275 4.74627 10.4282 4.91724 11.0888C3.9501 11.2699 3.01398 11.5891 2.1376 12.0365ZM6.54916 15.2014C6.51714 15.194 6.4863 15.1837 6.45428 15.1763C6.24964 15.1282 6.04672 15.0734 5.84838 15.0048C5.81807 14.9945 5.78836 14.9825 5.75862 14.9716C5.56199 14.903 5.36824 14.827 5.17845 14.743C5.14529 14.7275 5.1127 14.7104 5.07954 14.695C4.89778 14.6084 4.72021 14.5149 4.54682 14.4143L4.43252 14.3451C4.26791 14.2445 4.10785 14.1369 3.95238 14.0222C3.91236 13.993 3.87237 13.965 3.83292 13.933C3.68049 13.8187 3.53454 13.6962 3.39508 13.5655C3.35851 13.5323 3.32076 13.4997 3.28476 13.4654C3.13843 13.3265 2.99897 13.1797 2.86407 13.0276C2.84692 13.0076 2.82863 12.9893 2.81148 12.9704C3.58544 12.6016 4.40536 12.3382 5.24931 12.1874C5.6403 13.2622 6.15677 14.2871 6.78802 15.2408C6.70862 15.2266 6.62747 15.2186 6.54916 15.2014ZM8.00327 14.9865C7.3528 14.0646 6.8178 13.0664 6.41024 12.0142C7.46881 11.9003 8.53656 11.9003 9.59513 12.0142L9.59456 12.0148C9.18657 13.0662 8.65221 14.0641 8.00327 14.9865ZM13.1419 13.0282C13.0076 13.1803 12.8675 13.3272 12.7212 13.466C12.6852 13.5003 12.6475 13.5329 12.6109 13.5661C12.4699 13.6949 12.3239 13.8174 12.1731 13.9336C12.1336 13.9639 12.0936 13.9936 12.0536 14.0228C11.8981 14.1371 11.7381 14.2448 11.5735 14.3457L11.4591 14.4149C11.2861 14.5159 11.1086 14.6094 10.9264 14.6956C10.8933 14.711 10.8607 14.7281 10.8275 14.7436C10.6378 14.8293 10.444 14.9053 10.2474 14.9722C10.2176 14.9831 10.1902 14.9951 10.1576 15.0054C9.95929 15.0717 9.7575 15.1266 9.55173 15.1769C9.51971 15.1843 9.48886 15.1946 9.45628 15.2014C9.37797 15.2186 9.29679 15.2266 9.21735 15.2409C9.8486 14.2872 10.3651 13.2623 10.7561 12.1875C11.6 12.3383 12.42 12.6017 13.1939 12.9705C13.1773 12.9899 13.1591 13.0082 13.1419 13.0282ZM13.869 12.0365C12.9928 11.5891 12.0569 11.27 11.0899 11.0888C11.2607 10.4282 11.3677 9.75272 11.4094 9.07166H14.8332C14.7457 10.1213 14.4156 11.1362 13.869 12.0365Z" fill="white"/>
</svg>
